PathFileType	4	(X/Y/Z)	C:/Users/beibeiliu/ov580/test_trc/User3\sequence.8_training_dense_left.trc
DataRate	CameraRate	NumFrames	NumMarkers	Units	OrigDataRate	OrigDataStartFrame	OrigNumFrames
120	120	9	19	mm	120	89	235
Frame#	Time	ThumbCMC			ThumbMCP			ThumbIP			ThumbTip			IndexMCP			IndexPIP			IndexTip			MiddleMCP			MiddlePIP			MiddleTip			RingMCP			RingPIP			RingTip			PinkyMCP			PinkyPIP			PinkyTip			BackHand1			BackHand2			BackHand3	
		X0	Y0	Z0	X1	Y1	Z1	X2	Y2	Z2	X3	Y3	Z3	X4	Y4	Z4	X5	Y5	Z5	X6	Y6	Z6	X7	Y7	Z7	X8	Y8	Z8	X9	Y9	Z9	X10	Y10	Z10	X11	Y11	Z11	X12	Y12	Z12	X13	Y13	Z13	X14	Y14	Z14	X15	Y15	Z15	X16	Y16	Z16	X17	Y17	Z17	X18	Y18	Z18	
88	0.733333	-174.018	7.98581	12.8174	-159.879	3.85954	-16.1223	-157.657	-4.08464	-49.757	-173.125	-22.1522	-64.9859	-207.887	23.6246	-53.0675	-209.828	27.3702	-85.416	-212.074	22.3556	-107.469	-215.277	-0.0542782	-67.7832	-193.847	-22.1986	-78.9286	-178.549	-31.5664	-47.0838	-221.544	-21.7134	-53.8494	-197.946	-40.6993	-57.2571	-190.775	-38.2312	-24.3762	-226.151	-34.2813	-44.3507	-204.127	-50.0054	-41.3695	-199.727	-47.631	-11.8123	-238.222	0.314699	-2.21326	-237.977	-4.60329	26.7945	-210.599	19.7729	8.43678	
89	0.741667	-175.844	7.11417	12.2185	-161.484	3.83408	-16.4544	-161.212	-6.21089	-46.8104	-168.777	-21.5752	-63.1105	-205.674	19.2458	-57.575	-204.307	17.3065	-88.3439	-199.886	11.797	-114.023	-214.368	-1.81513	-68.5059	-191.346	-23.217	-79.3366	-180.352	-35.1486	-44.5838	-218.95	-22.0049	-56.2528	-198.262	-45.3933	-56.2185	-189.15	-38.6436	-24.8547	-229.849	-38.0646	-42.8318	-204.346	-52.506	-40.1163	-198.34	-43.305	-11.4399	-240.487	-2.81722	-4.37907	-240.01	-4.89865	26.3169	-211.987	20.3238	7.79487	
90	0.75	-174.302	9.59013	13.9378	-163.016	3.60984	-16.7921	-158.731	-6.12883	-49.9079	-172.866	-23.7087	-63.893	-207.407	16.727	-57.6469	-204.664	14.7283	-85.7001	-198.803	4.45963	-113.822	-215.157	-2.56538	-64.3149	-195.271	-24.5696	-80.3661	-180.895	-35.6037	-42.4979	-219.91	-22.3391	-54.2163	-196.957	-46.5928	-55.2161	-191.347	-38.9278	-19.3052	-227.301	-42.4345	-44.9511	-204.076	-52.7436	-41.4836	-197.374	-45.7041	-13.6643	-236.906	-1.35831	-5.09379	-239.689	-6.66882	23.3785	-212.389	21.5078	8.62907	
91	0.758333	-175.66	11.093	11.9433	-160.948	6.05404	-18.804	-159.027	-5.21199	-48.0623	-171.49	-22.8905	-62.8809	-209.492	19.4463	-62.4474	-210.093	15.5991	-86.6871	-205.817	9.04009	-112.75	-216.512	-1.8549	-64.1966	-193.24	-27.3231	-77.9997	-181.394	-35.9948	-42.3147	-219.95	-26.539	-58.1199	-200.427	-47.8312	-54.2726	-192.962	-41.1992	-21.4064	-230.192	-39.1952	-40.8808	-205.453	-55.3183	-38.753	-198.83	-46.6968	-9.00715	-239.811	-1.6886	-5.5635	-239.632	-4.31089	23.5876	-214.585	18.2777	6.33568	
92	0.766667	-176.777	10.7142	12.3407	-164.977	4.97576	-16.6754	-162.977	-3.91304	-50.1355	-176.274	-22.42	-62.7358	-213.723	19.4675	-56.4847	-216.689	20.4004	-86.1169	-216.629	15.4343	-108.476	-221.577	-4.98735	-64.5036	-199.294	-27.0643	-77.5697	-180.894	-34.0342	-41.7034	-224.007	-27.0093	-55.2144	-200.303	-46.9211	-52.4271	-190.795	-39.5962	-23.2695	-231.307	-41.1476	-42.3152	-206.056	-53.7472	-39.9668	-198.487	-43.0407	-10.3478	-242.785	-4.90497	-3.43667	-237.912	-4.33394	28.9778	-217.447	15.8192	11.1486	
93	0.775	-179.559	11.5249	11.9962	-167.201	7.52216	-21.0301	-164.893	-2.65061	-46.7184	-172.648	-19.6852	-66.6137	-216.61	25.0615	-53.9311	-222.166	26.276	-81.0377	-226.172	25.0368	-108.882	-221.167	-2.89737	-67.4724	-200.694	-22.991	-79.6343	-183.854	-33.6008	-44.8665	-224.099	-27.5015	-56.2638	-201.872	-43.7017	-54.6244	-190.329	-34.0918	-22.6439	-229.788	-37.6305	-42.6591	-204.25	-50.6069	-40.3404	-198.554	-41.0212	-10.3723	-242.334	-1.02226	-3.1507	-236.893	-4.36795	26.9775	-218.832	19.3457	10.9069	
94	0.783333	-184.458	13.6107	12.1323	-166.638	12.6579	-21.453	-167.689	1.28649	-52.8174	-176.812	-16.5407	-65.1732	-223.41	26.7372	-56.6353	-232.446	26.0245	-79.1729	-237.247	27.7383	-102.914	-224.798	-0.678091	-67.3876	-200.76	-20.1158	-80.1226	-184.129	-30.4278	-44.488	-225.631	-25.0154	-55.4104	-200.877	-39.7723	-56.3485	-192.16	-33.2669	-20.9289	-229.082	-38.2205	-42.0909	-206.507	-53.1729	-39.9256	-195.603	-41.4917	-10.3519	-242.036	-3.63508	-1.62353	-240.481	-6.01341	28.3477	-222.789	17.5258	10.6353	
95	0.791667	-188.154	17.4674	10.2662	-171.468	17.2276	-20.6333	-175.13	5.71812	-51.7551	-177.598	-12.5044	-68.4216	-232.968	25.4171	-56.2538	-242.785	24.7234	-79.4251	-251.876	24.3757	-103.993	-231.686	-4.41158	-66.1128	-208.279	-17.4675	-82.1777	-185.874	-27.1573	-47.785	-228.103	-27.0066	-54.8537	-203.867	-39.4438	-56.9025	-192.215	-32.6915	-25.7531	-232.262	-42.2721	-39.7304	-201.135	-49.1495	-37.61	-194.823	-36.2443	-12.6141	-248.668	-6.96215	-3.4234	-239.576	-8.33163	28.5822	-225.384	22.5417	9.61069	
96	0.8	-192.752	21.7792	7.20718	-180.922	20.5429	-24.2325	-177.354	10.8356	-57.3595	-185.004	-10.2007	-69.2127	-239.219	24.0962	-53.4703	-250.766	26.5896	-78.5506	-263.311	22.2586	-101.378	-235.939	-4.44063	-62.2861	-210.943	-19.1929	-80.8873	-186.869	-22.4959	-52.0011	-229.731	-23.3883	-55.9229	-201.165	-35.7976	-57.2872	-192.885	-28.2061	-26.3972	-228.849	-40.6454	-43.1762	-201.41	-44.6296	-39.7372	-195.509	-36.7689	-12.4936	-250.528	-10.339	-2.35881	-245.815	-11.0802	27.7834	-228.278	21.2011	11.4567	
